<svg version="1.1" id="Layer_1" xmlns="http://www.w3.org/2000/svg" x="0" y="0" viewBox="0 0 125.5 86" xml:space="preserve"><style>.st4{fill:none;stroke:#00a9e0;stroke-width:2;stroke-linecap:round;stroke-miterlimit:10}</style><path fill="#fff" d="M1 84.9L1 1.1 124.5 1.1 124.5 84.9"/><path d="M124,1.3L71.2,43c-5,3.9-12,3.9-16.9,0L1.5,1.4" fill="#cceef9"/><path d="M124,1.3L71.2,43c-5,3.9-12,3.9-16.9,0L1.5,1.4" fill="none" stroke="#00a9e0" stroke-width="2" stroke-miterlimit="10"/><path class="st4" d="M45.2 45.8L1.5 84.3M79.9 45.8L123.9 84.5"/><g><path class="st4" d="M115.3,85L3.1,85c-1.1,0-2-0.9-2-2L1,3.1c0-1.1,0.9-2,2-2L122.4,1c1.1,0,2,0.9,2,2l0.1,79.9c0,1.1-0.9,2-2,2 l-16.2,0"/></g></svg>